<?xml version="1.0" encoding="UTF-8" standalone="no"?>
<svg
   xmlns:dc="http://purl.org/dc/elements/1.1/"
   xmlns:cc="http://creativecommons.org/ns#"
   xmlns:rdf="http://www.w3.org/1999/02/22-rdf-syntax-ns#"
   xmlns:svg="http://www.w3.org/2000/svg"
   xmlns="http://www.w3.org/2000/svg"
   xmlns:sodipodi="http://sodipodi.sourceforge.net/DTD/sodipodi-0.dtd"
   xmlns:inkscape="http://www.inkscape.org/namespaces/inkscape"
   id="status-map"
   version="1.1"
   x="0px"
   y="0px"
   width="351"
   height="553"
   viewBox="64.094 122.25 277.44934 400.58011"
   enable-background="new 0 0 1247.244 907.087"
   xml:space="preserve"
   class="coloured-disruptions"
   data-margin-width="11.438118882830338"
   data-margin-height="-0.5"
   inkscape:version="0.48.4 r9943 custom"
   sodipodi:docname="hainault loop EPP.svg"><metadata
     id="metadata6454"><rdf:RDF><cc:Work
         rdf:about=""><dc:format>image/svg+xml</dc:format><dc:type
           rdf:resource="http://purl.org/dc/dcmitype/StillImage" /><dc:title /></cc:Work></rdf:RDF></metadata><defs
     id="defs6452"><marker
       inkscape:stockid="TriangleOutS"
       orient="auto"
       refY="0"
       refX="0"
       id="TriangleOutS"
       style="overflow:visible"
       inkscape:isstock="true"><path
         id="path10734"
         d="m 5.77,0 -8.65,5 0,-10 8.65,5 z"
         style="fill:#ee3124;fill-opacity:1;fill-rule:evenodd;stroke:#ee3124;stroke-width:1pt;stroke-opacity:1"
         transform="scale(0.2,0.2)"
         inkscape:connector-curvature="0" /></marker><marker
       inkscape:stockid="TriangleInS"
       orient="auto"
       refY="0"
       refX="0"
       id="TriangleInS"
       style="overflow:visible"
       inkscape:isstock="true"
       inkscape:collect="always"><path
         id="path10725"
         d="m 5.77,0 -8.65,5 0,-10 8.65,5 z"
         style="fill:#ee3124;fill-opacity:1;fill-rule:evenodd;stroke:#ee3124;stroke-width:1pt;stroke-opacity:1"
         transform="scale(-0.2,-0.2)"
         inkscape:connector-curvature="0" /></marker></defs><sodipodi:namedview
     pagecolor="#ffffff"
     bordercolor="#666666"
     borderopacity="1"
     objecttolerance="10"
     gridtolerance="10"
     guidetolerance="10"
     inkscape:pageopacity="0"
     inkscape:pageshadow="2"
     inkscape:window-width="1920"
     inkscape:window-height="1031"
     id="namedview6450"
     showgrid="false"
     inkscape:zoom="1.44"
     inkscape:cx="-87.369223"
     inkscape:cy="325.34688"
     inkscape:window-x="1"
     inkscape:window-y="23"
     inkscape:window-maximized="0"
     inkscape:current-layer="status-map"
     fit-margin-top="0"
     fit-margin-left="0"
     fit-margin-right="0"
     fit-margin-bottom="0" /><g
     id="lul-central"
     class="line"
     transform="matrix(3.5388104,0,0,3.5388104,-2907.76,-510.4946)"><path
       id="lul-central_940gzzlulys_940gzzluwsd"
       stroke-miterlimit="3.9938"
       d="m 857.66,266.225 h -9.51 c -2.735,0 -4.952,2.217 -4.952,4.952 0,2.56 0,11.102 0,11.102"
       inkscape:connector-curvature="0"
       style="fill:none;stroke:#ee3124;stroke-width:2.27069998;stroke-linejoin:round;stroke-miterlimit:3.99379992" /><path
       id="lul-central_940gzzluwof_940gzzlurvy"
       stroke-miterlimit="3.9938"
       d="m 856.883,206.804 h -8.733 c -2.735,0 -4.952,2.217 -4.952,4.952 0,2.673 0,10.086 0,10.086"
       inkscape:connector-curvature="0"
       style="fill:none;stroke:#ee3124;stroke-width:2.27069998;stroke-linejoin:round;stroke-miterlimit:3.99379992" /><line
       id="lul-central_940gzzlurvy_940gzzlucwl"
       stroke-miterlimit="3.9938"
       x1="873.31299"
       y1="206.804"
       x2="856.883"
       y2="206.804"
       style="fill:none;stroke:#ee3124;stroke-width:2.27069998;stroke-linejoin:round;stroke-miterlimit:3.99379992" /><line
       id="lul-central_940gzzlucwl_940gzzluggh"
       stroke-miterlimit="3.9938"
       x1="885.29602"
       y1="206.804"
       x2="871.81403"
       y2="206.804"
       style="fill:none;stroke:#ee3124;stroke-width:2.27069998;stroke-linejoin:round;stroke-miterlimit:3.99379992" /><path
       id="lul-central_940gzzluggh_940gzzluhlt"
       stroke-miterlimit="3.9938"
       d="m 891.024,219.995 v -8.239 c 0,-2.735 -2.217,-4.952 -4.952,-4.952 h -2.276"
       inkscape:connector-curvature="0"
       style="fill:none;stroke:#ee3124;stroke-width:2.27069998;stroke-linejoin:round;stroke-miterlimit:3.99379992" /><line
       id="lul-central_940gzzluflp_940gzzluhlt"
       stroke-miterlimit="3.9938"
       x1="891.02399"
       y1="232.04401"
       x2="891.02399"
       y2="219.995"
       style="fill:none;stroke:#ee3124;stroke-width:2.27069998;stroke-linejoin:round;stroke-miterlimit:3.99379992" /><line
       id="lul-central_940gzzlubke_940gzzluflp"
       stroke-miterlimit="3.9938"
       x1="891.02399"
       y1="243.138"
       x2="891.02399"
       y2="230.545"
       style="fill:none;stroke:#ee3124;stroke-width:2.27069998;stroke-linejoin:round;stroke-miterlimit:3.99379992" /><line
       id="lul-central_940gzzlunbp_940gzzlubke"
       stroke-miterlimit="3.9938"
       x1="891.02399"
       y1="256.46399"
       x2="891.02399"
       y2="241.63901"
       style="fill:none;stroke:#ee3124;stroke-width:2.27069998;stroke-linejoin:round;stroke-miterlimit:3.99379992" /><path
       id="lul-central_940gzzlugth_940gzzlunbp"
       stroke-miterlimit="3.9938"
       d="m 883.796,266.225 h 2.276 c 2.735,0 4.952,-2.217 4.952,-4.952 v -6.308"
       inkscape:connector-curvature="0"
       style="fill:none;stroke:#ee3124;stroke-width:2.27069998;stroke-linejoin:round;stroke-miterlimit:3.99379992" /><line
       id="lul-central_940gzzlurbg_940gzzlugth"
       stroke-miterlimit="3.9938"
       x1="869.98401"
       y1="266.22501"
       x2="885.29602"
       y2="266.22501"
       style="fill:none;stroke:#ee3124;stroke-width:2.27069998;stroke-linejoin:round;stroke-miterlimit:3.99379992" /><line
       id="lul-central_940gzzluwsd_940gzzlurbg"
       stroke-miterlimit="3.9938"
       x1="856.16101"
       y1="266.22501"
       x2="871.48297"
       y2="266.22501"
       style="fill:none;stroke:#ee3124;stroke-width:2.27069998;stroke-linejoin:round;stroke-miterlimit:3.99379992" /><line
       id="lul-central_940gzzlulyn_940gzzlulys"
       stroke-miterlimit="3.9938"
       x1="843.11768"
       y1="280.66898"
       x2="843.11768"
       y2="294.46454"
       style="fill:none;stroke:#ee3124;stroke-width:2.12790203;stroke-linejoin:round;stroke-miterlimit:3.99379992;stroke-dasharray:none;marker-end:url(#TriangleOutS)" /><line
       id="lul-central_940gzzlulys_940gzzlusnb"
       stroke-miterlimit="3.9938"
       x1="843.20099"
       y1="244.826"
       x2="843.20099"
       y2="282.27899"
       style="fill:none;stroke:#ee31ff;stroke-width:2.27069998;stroke-linejoin:round;stroke-miterlimit:3.99379992;stroke-opacity:1" /><line
       id="lul-central_940gzzlusnb_940gzzluswf"
       stroke-miterlimit="3.9938"
       x1="843.20099"
       y1="232.98"
       x2="843.20099"
       y2="246.325"
       style="fill:none;stroke:#ee31ff;stroke-width:2.27069998;stroke-linejoin:round;stroke-miterlimit:3.99379992;stroke-opacity:1" /><line
       id="lul-central_940gzzluswf_940gzzluwof"
       stroke-miterlimit="3.9938"
       x1="843.20099"
       y1="221.882"
       x2="843.20099"
       y2="234.479"
       style="fill:none;stroke:#ee31ff;stroke-width:2.27069998;stroke-linejoin:round;stroke-miterlimit:3.99379992;stroke-opacity:1" /><line
       id="lul-central_940gzzluwof_940gzzlubkh"
       stroke-miterlimit="3.9938"
       x1="843.11371"
       y1="188.83653"
       x2="843.11108"
       y2="221.72517"
       style="fill:none;stroke:#ee31ff;stroke-width:2.23105431;stroke-linejoin:round;stroke-miterlimit:3.99379992;stroke-opacity:1" /><line
       id="lul-central_940gzzlubkh_940gzzlulgn"
       stroke-miterlimit="3.9938"
       x1="843.07312"
       y1="177.06166"
       x2="843.07312"
       y2="188.88934"
       style="fill:none;stroke:#ee31ff;stroke-width:2.17942286;stroke-linejoin:round;stroke-miterlimit:3.99379992;stroke-opacity:1;stroke-dasharray:none;marker-start:url(#TriangleInS)" /><rect
       id="lul-central_940gzzlulys_1_"
       x="844.32397"
       y="280.78101"
       width="1.499"
       height="1.498"
       style="fill:#ee3124" /><rect
       id="lul-central_940gzzluwsd_1_"
       x="856.16101"
       y="267.34"
       width="1.499"
       height="1.498"
       style="fill:#ee3124" /><rect
       id="lul-central_940gzzlugth_1_"
       x="883.797"
       y="267.34"
       width="1.499"
       height="1.498"
       style="fill:#ee3124" /><rect
       id="lul-central_940gzzlurbg_1_"
       x="869.98401"
       y="263.60599"
       width="1.499"
       height="1.498"
       style="fill:#ee3124" /><rect
       id="lul-central_940gzzlusnb_1_"
       x="844.341"
       y="244.851"
       width="1.499"
       height="1.498"
       style="fill:#ee3124" /><rect
       id="lul-central_940gzzluswf_1_"
       x="844.31201"
       y="232.981"
       width="1.499"
       height="1.498"
       style="fill:#ee3124" /><rect
       id="lul-central_940gzzlunbp_1_"
       x="892.14398"
       y="254.966"
       width="1.499"
       height="1.498"
       style="fill:#ee3124" /><rect
       id="lul-central_940gzzlubke_1_"
       x="892.14398"
       y="241.63901"
       width="1.499"
       height="1.498"
       style="fill:#ee3124" /><rect
       id="lul-central_940gzzluflp_1_"
       x="892.14398"
       y="230.54601"
       width="1.499"
       height="1.498"
       style="fill:#ee3124" /><rect
       id="lul-central_940gzzlucwl_1_"
       x="871.81403"
       y="207.918"
       width="1.499"
       height="1.498"
       style="fill:#ee3124" /><rect
       id="lul-central_940gzzluggh_1_"
       x="883.797"
       y="204.18401"
       width="1.499"
       height="1.498"
       style="fill:#ee3124" /><rect
       id="lul-central_940gzzlubkh_1_"
       x="844.02667"
       y="187.42458"
       width="1.796306"
       height="1.498"
       style="fill:#ee3124" /></g><g
     id="station-names"
     style="font-size:4.75px;font-family:NJFont Signing"
     transform="translate(-775.69506,244.00462)"><text
   id="s-940gzzlulys_label_1_"
   style="font-size:16.80934906px;fill:#1c3f94"
   x="865.48004"
   y="247.24847">Leytonstone</text>





<g
   id="s-940gzzlurbg_label_2_"
   transform="matrix(3.5388104,0,0,3.5388104,-2132.065,-754.49922)"><text
   id="s-940gzzlurbg_label_3_"
   transform="translate(860.2305,262.1783)"
   style="fill:#1c3f94"><tspan
     id="tspan3089">Redbridge</tspan></text>





</g><g
   id="s-940gzzlugth_label_1_"
   transform="matrix(3.5388104,0,0,3.5388104,-2132.065,-754.49922)"><text
   id="s-940gzzlugth_label_4_"
   transform="translate(878.4082,272.8526)"><tspan
     x="0"
     y="0"
     id="tspan1399"
     style="fill:#1c3f94">Gants</tspan><tspan
     x="2.6140001"
     y="4.5450001"
     id="tspan1401"
     style="fill:#1c3f94">Hill</tspan></text>





</g><g
   id="s-940gzzluwsd_label_2_"
   transform="matrix(3.5388104,0,0,3.5388104,-2132.065,-754.49922)"><text
   id="s-940gzzluwsd_label_3_"
   transform="translate(846.3779,272.8526)"
   style="fill:#1c3f94">Wanstead</text>





</g><text
   id="s-940gzzluwof_label_2_"
   style="font-size:16.80934906px;fill:#1c3f94"
   x="866.12982"
   y="37.131954">Woodford</text>





<text
   id="s-940gzzluswf_label_1_"
   style="font-size:16.80934906px;fill:#1c3f94"
   x="864.789"
   y="77.831459">South Woodford</text>





<text
   id="s-940gzzlusnb_label_1_"
   style="font-size:16.80934906px;fill:#1c3f94"
   x="864.58508"
   y="119.67188">Snaresbrook</text>





<text
   id="s-940gzzluhlt_label_1_"
   style="font-size:16.80934906px;fill:#1c3f94"
   x="1035.9688"
   y="30.078396">Hainault</text>





<text
   id="s-940gzzluflp_label_2_"
   style="font-size:16.80934906px;fill:#1c3f94"
   x="1034.2441"
   y="69.338669">Fairlop</text>





<text
   id="s-940gzzlubke_label_2_"
   style="font-size:16.80934906px;fill:#1c3f94"
   x="1034.2441"
   y="108.59753">Barkingside</text>





<text
   id="s-940gzzlunbp_label_1_"
   style="font-size:16.80934906px"
   x="1034.1854"
   y="147.93211"><tspan
     x="1034.1854"
     y="147.93211"
     id="tspan1417"
     style="fill:#1c3f94">Newbury</tspan><tspan
     x="1034.1854"
     y="164.01601"
     id="tspan1419"
     style="fill:#1c3f94">Park</tspan></text>





<g
   id="s-940gzzlurvy_label_1_"
   transform="matrix(3.5388104,0,0,3.5388104,-2132.065,-754.49922)"><text
   id="s-940gzzlurvy_label_4_"
   transform="translate(849.7148,197.5982)"><tspan
     x="0"
     y="0"
     id="tspan1423"
     style="fill:#1c3f94">Roding</tspan><tspan
     x="0.72899997"
     y="4.5450001"
     id="tspan1425"
     style="fill:#1c3f94">Valley</tspan></text>





</g><g
   id="s-940gzzluggh_label_2_"
   transform="matrix(3.5388104,0,0,3.5388104,-2132.065,-754.49922)"><text
   id="s-940gzzluggh_label_3_"
   transform="translate(877.1455,198.0357)"><tspan
     x="0"
     y="0"
     id="tspan1429"
     style="fill:#1c3f94">Grange</tspan><tspan
     x="3.878"
     y="4.5450001"
     id="tspan1431"
     style="fill:#1c3f94">Hill</tspan></text>





</g><g
   id="s-940gzzlucwl_label_1_"
   transform="matrix(3.5388104,0,0,3.5388104,-2132.065,-754.49922)"><text
   id="s-940gzzlucwl_label_4_"
   transform="translate(863.582,213.4068)"
   style="fill:#1c3f94"><tspan
     id="tspan3083">Chigwell</tspan></text>





</g><text
   id="s-940gzzlubkh_label_2_"
   x="864.61993"
   y="-83.04705"
   style="font-size:16.80934906px;fill:#1c3f94">Buckhurst Hill</text>





<text
   style="font-size:16.80934906px;fill:#1c3f94"
   y="-124.07934"
   x="864.83051"
   id="text11512">To Epping</text>





<text
   id="text12144"
   x="865.0592"
   y="291.43707"
   style="font-size:16.80934906px;fill:#1c3f94">To Central London</text>





</g><g
     id="interchange-circles"
     transform="matrix(3.5388104,0,0,3.5388104,-2907.76,-510.4946)"><g
       id="s-940gzzluhlt_1_"
       data-linestop="central"><g
         id="g4944"><circle
           cx="890.96997"
           cy="219.97501"
           r="3.411"
           class="blue-fill"
           id="circle4946"
           sodipodi:cx="890.96997"
           sodipodi:cy="219.97501"
           sodipodi:rx="3.411"
           sodipodi:ry="3.411"
           style="fill:#1c3f94"
           d="m 894.38097,219.97501 c 0,1.88384 -1.52716,3.411 -3.411,3.411 -1.88384,0 -3.411,-1.52716 -3.411,-3.411 0,-1.88385 1.52716,-3.411 3.411,-3.411 1.88384,0 3.411,1.52715 3.411,3.411 z" /><path
           d="m 890.97,223.035 c -1.687,0 -3.059,-1.373 -3.059,-3.06 0,-1.688 1.372,-3.062 3.059,-3.062 1.688,0 3.06,1.374 3.06,3.062 0,1.687 -1.372,3.06 -3.06,3.06 l 0,0 z"
           class="white-fill"
           id="path4948"
           inkscape:connector-curvature="0"
           style="fill:#ffffff" /></g><g
         id="g4950"><g
           id="g4952"><path
             d="m 889.816,220.97 c 0.162,0.536 0.659,0.927 1.245,0.927 0.719,0 1.302,-0.583 1.302,-1.302 0,-0.378 -0.161,-0.719 -0.418,-0.958 l 0.075,-0.562 c 0.503,0.318 0.839,0.88 0.839,1.52 0,0.993 -0.804,1.798 -1.798,1.798 -0.643,0 -1.209,-0.341 -1.525,-0.85 l 0.28,-0.573 z"
             class="blue-fill"
             id="path4954"
             inkscape:connector-curvature="0"
             style="fill:#1c3f94" /><circle
             cx="891.53101"
             cy="217.716"
             r="0.50400001"
             class="blue-fill"
             id="circle4956"
             sodipodi:cx="891.53101"
             sodipodi:cy="217.716"
             sodipodi:rx="0.50400001"
             sodipodi:ry="0.50400001"
             style="fill:#1c3f94"
             d="m 892.03501,217.716 c 0,0.27835 -0.22565,0.504 -0.504,0.504 -0.27836,0 -0.504,-0.22565 -0.504,-0.504 0,-0.27835 0.22564,-0.504 0.504,-0.504 0.27835,0 0.504,0.22565 0.504,0.504 z" /><path
             d="m 891.298,218.604 -0.052,0.355 h -1.087 c 0,0 -0.228,0.02 -0.228,0.244 0,0.218 0.228,0.242 0.228,0.242 h 1.021 l -0.05,0.336 h -1.382 c 0,0 -0.093,0 -0.146,0.051 -0.037,0.036 -0.087,0.143 -0.087,0.143 l -0.766,1.567 c 0,0 -0.088,0.204 0.135,0.322 0.221,0.117 0.358,-0.107 0.358,-0.107 l 0.608,-1.242 c 0,0 0.052,-0.08 0.108,-0.107 0.067,-0.032 0.122,-0.034 0.122,-0.034 l 1.264,0.001 c 0,0 0.13,0 0.24,-0.106 0.105,-0.102 0.122,-0.217 0.122,-0.217 l 0.19,-1.361 c 0,0 -0.007,-0.281 -0.301,-0.302 -0.224,-0.015 -0.297,0.215 -0.297,0.215 z"
             class="blue-fill"
             id="path4958"
             inkscape:connector-curvature="0"
             style="fill:#1c3f94" /></g></g></g><g
       id="s-940gzzluwof_1_"
       data-linestop="central"><g
         id="g4961"><circle
           cx="843.20099"
           cy="221.868"
           r="3.4119999"
           class="blue-fill"
           id="circle4963"
           sodipodi:cx="843.20099"
           sodipodi:cy="221.868"
           sodipodi:rx="3.4119999"
           sodipodi:ry="3.4119999"
           style="fill:#1c3f94"
           d="m 846.61299,221.868 c 0,1.88439 -1.52761,3.412 -3.412,3.412 -1.8844,0 -3.412,-1.52761 -3.412,-3.412 0,-1.8844 1.5276,-3.412 3.412,-3.412 1.88439,0 3.412,1.5276 3.412,3.412 z" /><path
           d="m 843.2,224.928 c -1.687,0 -3.057,-1.372 -3.057,-3.059 0,-1.688 1.37,-3.062 3.057,-3.062 1.69,0 3.062,1.374 3.062,3.062 0,1.687 -1.372,3.059 -3.062,3.059 l 0,0 z"
           class="white-fill"
           id="path4965"
           inkscape:connector-curvature="0"
           style="fill:#ffffff" /></g><g
         id="g4967"><g
           id="g4969"><path
             d="m 842.047,222.863 c 0.163,0.536 0.661,0.927 1.249,0.927 0.718,0 1.3,-0.583 1.3,-1.302 0,-0.378 -0.161,-0.718 -0.419,-0.957 l 0.078,-0.563 c 0.501,0.317 0.837,0.88 0.837,1.519 0,0.994 -0.804,1.798 -1.797,1.798 -0.646,0 -1.211,-0.341 -1.527,-0.85 l 0.279,-0.572 z"
             class="blue-fill"
             id="path4971"
             inkscape:connector-curvature="0"
             style="fill:#1c3f94" /><circle
             cx="843.763"
             cy="219.60899"
             r="0.50400001"
             class="blue-fill"
             id="circle4973"
             sodipodi:cx="843.763"
             sodipodi:cy="219.60899"
             sodipodi:rx="0.50400001"
             sodipodi:ry="0.50400001"
             style="fill:#1c3f94"
             d="m 844.267,219.60899 c 0,0.27836 -0.22565,0.504 -0.504,0.504 -0.27835,0 -0.504,-0.22564 -0.504,-0.504 0,-0.27835 0.22565,-0.504 0.504,-0.504 0.27835,0 0.504,0.22565 0.504,0.504 z" /><path
             d="m 843.53,220.498 -0.053,0.354 h -1.087 c 0,0 -0.228,0.021 -0.228,0.245 0,0.217 0.228,0.242 0.228,0.242 h 1.022 l -0.048,0.336 h -1.384 c 0,0 -0.095,0 -0.147,0.051 -0.035,0.036 -0.087,0.143 -0.087,0.143 l -0.766,1.567 c 0,0 -0.088,0.205 0.135,0.323 0.22,0.117 0.36,-0.107 0.36,-0.107 l 0.606,-1.243 c 0,0 0.05,-0.08 0.108,-0.106 0.067,-0.033 0.122,-0.035 0.122,-0.035 l 1.262,0.002 c 0,0 0.13,0 0.241,-0.106 0.105,-0.102 0.122,-0.217 0.122,-0.217 l 0.19,-1.361 c 0,0 -0.005,-0.282 -0.301,-0.302 -0.22,-0.015 -0.295,0.214 -0.295,0.214 z"
             class="blue-fill"
             id="path4975"
             inkscape:connector-curvature="0"
             style="fill:#1c3f94" /></g></g></g><g
       id="s-940gzzlurvy_1_"
       data-linestop="central"><g
         id="g4978"><circle
           cx="856.87701"
           cy="206.80299"
           r="3.4119999"
           class="blue-fill"
           id="circle4980"
           sodipodi:cx="856.87701"
           sodipodi:cy="206.80299"
           sodipodi:rx="3.4119999"
           sodipodi:ry="3.4119999"
           style="fill:#1c3f94"
           d="m 860.28901,206.80299 c 0,1.8844 -1.5276,3.412 -3.412,3.412 -1.88439,0 -3.412,-1.5276 -3.412,-3.412 0,-1.88439 1.52761,-3.412 3.412,-3.412 1.8844,0 3.412,1.52761 3.412,3.412 z" /><path
           d="m 856.876,209.864 c -1.685,0 -3.059,-1.373 -3.059,-3.059 0,-1.689 1.374,-3.062 3.059,-3.062 1.69,0 3.062,1.373 3.062,3.062 0,1.686 -1.372,3.059 -3.062,3.059 l 0,0 z"
           class="white-fill"
           id="path4982"
           inkscape:connector-curvature="0"
           style="fill:#ffffff" /></g><g
         id="g4984"><g
           id="g4986"><path
             d="m 855.722,207.799 c 0.161,0.536 0.659,0.927 1.247,0.927 0.719,0 1.302,-0.582 1.302,-1.302 0,-0.378 -0.163,-0.718 -0.42,-0.957 l 0.077,-0.562 c 0.501,0.318 0.839,0.88 0.839,1.52 0,0.993 -0.806,1.798 -1.798,1.798 -0.644,0 -1.209,-0.34 -1.527,-0.85 l 0.28,-0.574 z"
             class="blue-fill"
             id="path4988"
             inkscape:connector-curvature="0"
             style="fill:#1c3f94" /><circle
             cx="857.43799"
             cy="204.54401"
             r="0.50400001"
             class="blue-fill"
             id="circle4990"
             sodipodi:cx="857.43799"
             sodipodi:cy="204.54401"
             sodipodi:rx="0.50400001"
             sodipodi:ry="0.50400001"
             style="fill:#1c3f94"
             d="m 857.94199,204.54401 c 0,0.27835 -0.22565,0.504 -0.504,0.504 -0.27835,0 -0.504,-0.22565 -0.504,-0.504 0,-0.27836 0.22565,-0.504 0.504,-0.504 0.27835,0 0.504,0.22564 0.504,0.504 z" /><path
             d="m 857.206,205.433 -0.053,0.354 h -1.086 c 0,0 -0.23,0.021 -0.23,0.245 0,0.217 0.228,0.241 0.228,0.241 h 1.021 l -0.048,0.336 h -1.384 c 0,0 -0.093,0 -0.147,0.052 -0.035,0.036 -0.085,0.143 -0.085,0.143 l -0.766,1.567 c 0,0 -0.088,0.204 0.133,0.322 0.221,0.117 0.36,-0.106 0.36,-0.106 l 0.608,-1.242 c 0,0 0.052,-0.08 0.107,-0.107 0.067,-0.032 0.123,-0.034 0.123,-0.034 l 1.262,0.002 c 0,0 0.13,0 0.24,-0.106 0.107,-0.103 0.123,-0.218 0.123,-0.218 l 0.19,-1.36 c 0,0 -0.007,-0.282 -0.301,-0.302 -0.222,-0.016 -0.295,0.213 -0.295,0.213 z"
             class="blue-fill"
             id="path4992"
             inkscape:connector-curvature="0"
             style="fill:#1c3f94" /></g></g></g></g></svg>